<svg xmlns="http://www.w3.org/2000/svg" width="527.3" height="236" viewBox="0 0 527.3 236" role="img">
<rect x="0.5" y="0.5" width="526.3" height="235" rx="6" fill="#ffffff" stroke="#d0d7de"/>
<text x="52.2" y="60" font-family="Helvetica, Arial, sans-serif" font-size="13" fill="#1f2328" text-anchor="end">q.xy</text>
<path d="M62.2,66 H513.3" fill="none" stroke="#8c959f" stroke-width="1"/>
<text x="52.2" y="144" font-family="Helvetica, Arial, sans-serif" font-size="13" fill="#1f2328" text-anchor="end">q.ro</text>
<path d="M62.2,150 H513.3" fill="none" stroke="#8c959f" stroke-width="1"/>
<path d="M74.2,56 H179" fill="none" stroke="#1f2328" stroke-width="1.2"/>
<path d="M69.2,56 l5,-3.5 v7 Z" fill="#1f2328"/>
<path d="M184,56 l-5,-3.5 v7 Z" fill="#1f2328"/>
<text x="126.6" y="49" font-family="Helvetica, Arial, sans-serif" font-size="13" fill="#1f2328" text-anchor="middle">thermal reset</text>
<path d="M203,66 C218,66 216.2,40 225,40 C233.8,40 232.1,66 247,66 Z" fill="#e3e8ef" stroke="#1f2328" stroke-width="1.4"/>
<text x="225" y="34" font-family="Helvetica, Arial, sans-serif" font-size="13" fill="#1f2328" text-anchor="middle">x90</text>
<path d="M271,56 H352.9" fill="none" stroke="#bc4c00" stroke-width="1.2"/>
<path d="M266,56 l5,-3.5 v7 Z" fill="#bc4c00"/>
<path d="M357.9,56 l-5,-3.5 v7 Z" fill="#bc4c00"/>
<text x="311.9" y="49" font-family="Helvetica, Arial, sans-serif" font-size="13" fill="#bc4c00" text-anchor="middle">idle</text>
<text x="311.9" y="81" font-family="Consolas, Menlo, monospace" font-size="11" fill="#bc4c00" text-anchor="middle">idle_time_ns</text>
<path d="M376.9,66 C391.8,66 390.1,40 398.9,40 C407.7,40 405.9,66 420.9,66 Z" fill="#ffe8d6" stroke="#bc4c00" stroke-width="1.4"/>
<text x="398.9" y="34" font-family="Helvetica, Arial, sans-serif" font-size="13" fill="#bc4c00" text-anchor="middle">x90<tspan font-size="9.4" dy="-4.9">1</tspan></text>
<text x="398.9" y="81" font-family="Consolas, Menlo, monospace" font-size="11" fill="#bc4c00" text-anchor="middle">frame</text>
<rect x="439.9" y="124" width="66.4" height="26" fill="#ffffff" stroke="#1f2328" stroke-width="1.4" stroke-dasharray="5 3"/>
<text x="473.1" y="141.6" font-family="Helvetica, Arial, sans-serif" font-size="13" fill="#1f2328" text-anchor="middle">readout</text>
<text x="62.2" y="199" font-family="Helvetica, Arial, sans-serif" font-size="11" fill="#1f2328" text-anchor="start">1  its frame is rotated by the swept fraction of a turn, at every idle</text>
<rect x="62.2" y="207" width="14" height="9" fill="#ffe8d6" stroke="#bc4c00" stroke-width="1.2"/>
<text x="82.2" y="216" font-family="Helvetica, Arial, sans-serif" font-size="11" fill="#bc4c00" text-anchor="start">swept; the name under it is the sweep axis</text>
</svg>
