<svg xmlns="http://www.w3.org/2000/svg" width="618.2" height="287" viewBox="0 0 618.2 287" role="img">
<rect x="0.5" y="0.5" width="617.2" height="286" rx="6" fill="#ffffff" stroke="#d0d7de"/>
<text x="52.2" y="60" font-family="Helvetica, Arial, sans-serif" font-size="13" fill="#1f2328" text-anchor="end">q.xy</text>
<path d="M62.2,66 H604.2" fill="none" stroke="#8c959f" stroke-width="1"/>
<text x="52.2" y="144" font-family="Helvetica, Arial, sans-serif" font-size="13" fill="#1f2328" text-anchor="end">q.ro</text>
<path d="M62.2,150 H604.2" fill="none" stroke="#8c959f" stroke-width="1"/>
<path d="M74.2,56 H179" fill="none" stroke="#1f2328" stroke-width="1.2"/>
<path d="M69.2,56 l5,-3.5 v7 Z" fill="#1f2328"/>
<path d="M184,56 l-5,-3.5 v7 Z" fill="#1f2328"/>
<text x="126.6" y="49" font-family="Helvetica, Arial, sans-serif" font-size="13" fill="#1f2328" text-anchor="middle">thermal reset</text>
<path d="M203,56 H292.6" fill="none" stroke="#1f2328" stroke-width="1.2"/>
<path d="M198,56 l5,-3.5 v7 Z" fill="#1f2328"/>
<path d="M297.6,56 l-5,-3.5 v7 Z" fill="#1f2328"/>
<text x="247.8" y="49" font-family="Helvetica, Arial, sans-serif" font-size="13" fill="#1f2328" text-anchor="middle">ring-up<tspan font-size="9.4" dy="-4.9">1</tspan></text>
<rect x="198" y="133.9" width="213.2" height="16.1" fill="#ffe8d6" fill-opacity="0.55" stroke="#bc4c00" stroke-width="1.2"/>
<text x="304.6" y="127.9" font-family="Helvetica, Arial, sans-serif" font-size="13" fill="#bc4c00" text-anchor="middle">Stark tone<tspan font-size="9.4" dy="-4.9">2</tspan></text>
<text x="304.6" y="165" font-family="Consolas, Menlo, monospace" font-size="11" fill="#bc4c00" text-anchor="middle">amp_prefactor</text>
<rect x="311.6" y="49.9" width="99.6" height="16.1" fill="#ffe8d6" fill-opacity="0.55" stroke="#bc4c00" stroke-width="1.2"/>
<text x="361.4" y="43.9" font-family="Helvetica, Arial, sans-serif" font-size="13" fill="#bc4c00" text-anchor="middle">saturation<tspan font-size="9.4" dy="-4.9">3</tspan></text>
<text x="361.4" y="81" font-family="Consolas, Menlo, monospace" font-size="11" fill="#bc4c00" text-anchor="middle">detuning_hz</text>
<path d="M430.2,140 H502.8" fill="none" stroke="#1f2328" stroke-width="1.2"/>
<path d="M425.2,140 l5,-3.5 v7 Z" fill="#1f2328"/>
<path d="M507.8,140 l-5,-3.5 v7 Z" fill="#1f2328"/>
<text x="466.5" y="133" font-family="Helvetica, Arial, sans-serif" font-size="13" fill="#1f2328" text-anchor="middle">depletion</text>
<rect x="521.8" y="124" width="75.4" height="26" fill="#ffffff" stroke="#1f2328" stroke-width="1.4" stroke-dasharray="5 3"/>
<text x="559.5" y="141.6" font-family="Helvetica, Arial, sans-serif" font-size="13" fill="#1f2328" text-anchor="middle">readout<tspan font-size="9.4" dy="-4.9">4</tspan></text>
<text x="62.2" y="199" font-family="Helvetica, Arial, sans-serif" font-size="11" fill="#1f2328" text-anchor="start">1  one depletion wait, for the photon number to settle</text>
<text x="62.2" y="216" font-family="Helvetica, Arial, sans-serif" font-size="11" fill="#1f2328" text-anchor="start">2  at the readout frequency; amp_prefactor times readout_amp</text>
<text x="62.2" y="233" font-family="Helvetica, Arial, sans-serif" font-size="11" fill="#1f2328" text-anchor="start">3  drive_len_ns long; it ends together with the Stark tone</text>
<text x="62.2" y="250" font-family="Helvetica, Arial, sans-serif" font-size="11" fill="#1f2328" text-anchor="start">4  the standard readout, the same in every row</text>
<rect x="62.2" y="258" width="14" height="9" fill="#ffe8d6" stroke="#bc4c00" stroke-width="1.2"/>
<text x="82.2" y="267" font-family="Helvetica, Arial, sans-serif" font-size="11" fill="#bc4c00" text-anchor="start">swept; the name under it is the sweep axis</text>
</svg>
